Coordinates
version=1
nRows=10
nColumns=22
inDegrees=yes

Units are S.I. units (second, meters, Newtons, ...)
If the header above contains a line with 'inDegrees', this indicates whether rotational values are in degrees (yes) or radians (no).

endheader
time	pelvis_tilt	pelvis_list	pelvis_rotation	pelvis_tx	pelvis_ty	pelvis_tz	hip_flexion_r	hip_adduction_r	hip_rotation_r	knee_angle_r	ankle_angle_r	subtalar_angle_r	hip_flexion_l	hip_adduction_l	hip_rotation_l	knee_angle_l	ankle_angle_l	subtalar_angle_l	lumbar_extension	lumbar_bending	lumbar_rotation
      4.88000000	    -13.78331768	      3.33556779	    -53.49043474	      1.12849319	      0.86803498	      1.03704657	     -2.32584000	     -0.68026580	     17.03714175	    -32.13584852	    -18.41066703	     14.04339229	     27.96522329	    -12.03770177	     -2.44938876	    -18.75201374	      8.56420160	     12.69568441	      5.40105620	      0.63397366	     17.12583976
      4.89000000	    -13.75817435	      3.19478139	    -53.33773952	      1.13231216	      0.86885227	      1.03887002	     -1.62925491	     -0.55995947	     16.26099995	    -33.45033346	    -17.99991741	     14.01036744	     27.48598771	    -11.91773917	     -2.40393977	    -18.55458702	      8.68374403	     12.67883775	      5.19614183	      0.54607938	     16.79101261
      4.90000000	    -13.71141253	      3.04119774	    -53.19424316	      1.13605849	      0.86967011	      1.04064659	     -0.92096750	     -0.46217649	     15.46352480	    -34.77825658	    -17.41082581	     13.84357428	     26.99559005	    -11.78916907	     -2.34534036	    -18.37303210	      8.77194897	     12.58462535	      4.96921114	      0.46376208	     16.47705736
      4.91000000	    -13.63883593	      2.86512445	    -53.05345960	      1.13977370	      0.87049908	      1.04238503	     -0.22289817	     -0.38548935	     14.66011881	    -36.10627676	    -16.62727435	     13.60884355	     26.47649563	    -11.65287431	     -2.28811032	    -18.19723827	      8.85093558	     12.44188800	      4.71244695	      0.39019941	     16.17453937
      4.92000000	    -13.54111792	      2.68238325	    -52.92339953	      1.14344326	      0.87132361	      1.04408686	      0.48401499	     -0.33375032	     13.87837577	    -37.44291727	    -15.66568512	     13.30794827	     25.93757751	    -11.50273619	     -2.23008879	    -18.02583523	      8.91891288	     12.23856342	      4.43816801	      0.31552930	     15.89468960
      4.93000000	    -13.41783898	      2.49696391	    -52.79594036	      1.14709570	      0.87213617	      1.04574031	      1.19669621	     -0.30874981	     13.12999789	    -38.77904572	    -14.53445781	     12.99679161	     25.37775804	    -11.33232156	     -2.17997217	    -17.84850992	      8.98006932	     11.98837929	      4.15216304	      0.23905321	     15.62570825
      4.94000000	    -13.27200970	      2.31127073	    -52.67436637	      1.15070789	      0.87293186	      1.04736105	      1.91898654	     -0.30416013	     12.42542656	    -40.11237053	    -13.26828501	     12.68303467	     24.79859867	    -11.14558558	     -2.12958883	    -17.66395582	      9.03433623	     11.67823365	      3.85762891	      0.15720103	     15.36957028
      4.95000000	    -13.11247288	      2.12293155	    -52.55135274	      1.15428998	      0.87370749	      1.04894851	      2.64109277	     -0.30831954	     11.76600548	    -41.41849671	    -11.90641549	     12.39224004	     24.20551834	    -10.94925697	     -2.07948499	    -17.47009275	      9.08364016	     11.32455538	      3.55925852	      0.08039282	     15.11705896
      4.96000000	    -12.95190342	      1.92548300	    -52.44182475	      1.15780248	      0.87448042	      1.05053002	      3.35673830	     -0.28915150	     11.19561744	    -42.67868592	    -10.50155536	     11.98249089	     23.58545969	    -10.76249981	     -2.00667218	    -17.24252348	      9.13246827	     10.76037699	      3.26027152	      0.02285731	     14.87875782
      4.97000000	    -12.78370578	      1.72192679	    -52.30864835	      1.16130900	      0.87522359	      1.05207258	      4.05988272	     -0.27698437	     10.61897960	    -43.88461359	     -9.11286425	     11.70541595	     22.97284383	    -10.57039617	     -1.94456811	    -17.03140326	      9.17161686	     10.30005774	      2.95932304	     -0.02556011	     14.61775455
